<svg width="459" height="103" viewBox="0 0 459 103" fill="none" xmlns="http://www.w3.org/2000/svg">
<path d="M277.087 32.9445C279.261 32.9445 281.114 33.3379 282.646 34.1242C284.019 34.819 285.188 35.7809 286.156 37.0089L286.466 33.5656H293.267V66.216C293.267 69.2367 292.625 71.8019 291.342 73.9123C290.058 76.0227 288.268 77.6272 285.97 78.7238C283.671 79.8411 281.01 80.3996 277.987 80.3996C276.704 80.3995 275.275 80.2133 273.702 79.841C272.149 79.4685 270.638 78.8678 269.168 78.0402C267.719 77.2333 266.507 76.168 265.534 74.8439L269.043 70.4367C270.244 71.8643 271.569 72.9093 273.018 73.5714C274.468 74.2335 275.99 74.5646 277.584 74.5646C279.302 74.5646 280.762 74.244 281.963 73.6027C283.184 72.982 284.126 72.0608 284.789 70.84C285.451 69.6193 285.783 68.1298 285.783 66.3712V63.9796C284.843 65.0723 283.735 65.9422 282.46 66.588C280.928 67.3743 279.116 67.7677 277.025 67.7677C274.976 67.7677 273.122 67.3436 271.466 66.4953C269.83 65.647 268.422 64.457 267.242 62.9259C266.083 61.3948 265.192 59.5946 264.571 57.5255C263.95 55.4358 263.64 53.1701 263.64 50.7287V50.0763C263.64 47.5315 263.95 45.2139 264.571 43.1242C265.192 41.0139 266.083 39.2038 267.242 37.6935C268.402 36.1624 269.809 34.9926 271.466 34.1857C273.122 33.3581 274.996 32.9445 277.087 32.9445ZM307.391 34.714C309.006 34.714 310.315 36.0232 310.315 37.6378V65.3712C310.315 66.9859 309.006 68.2951 307.391 68.2951H305.724C304.109 68.2951 302.8 66.9859 302.8 65.3712V37.6378C302.8 36.0232 304.109 34.714 305.724 34.714H307.391ZM242.801 32.9445C245.326 32.9445 247.563 33.3687 249.509 34.2169C251.476 35.0653 253.019 36.3482 254.137 38.0656C255.275 39.7622 255.845 41.8935 255.845 44.4591V59.3878C255.845 60.9189 255.948 62.2951 256.155 63.5158C256.383 64.7157 256.704 65.7609 257.118 66.6505V67.1466H249.447C249.095 66.3397 248.815 65.3157 248.608 64.0744C248.596 63.9926 248.585 63.9107 248.574 63.8293C248.277 64.1536 247.958 64.4742 247.614 64.7882C246.662 65.6572 245.513 66.3712 244.167 66.9298C242.842 67.4884 241.309 67.7677 239.57 67.7677C237.376 67.7677 235.419 67.3329 233.701 66.464C231.983 65.5743 230.637 64.3843 229.664 62.8947C228.691 61.3842 228.204 59.6772 228.204 57.7736C228.204 55.9942 228.535 54.4214 229.197 53.0558C229.88 51.6697 230.874 50.5113 232.179 49.5802C233.504 48.6491 235.119 47.9458 237.024 47.4699C238.929 46.9734 241.103 46.7248 243.546 46.7248H248.329V44.3966C248.329 43.1967 248.111 42.162 247.677 41.2931C247.242 40.4242 246.579 39.7524 245.688 39.2765C244.819 38.8007 243.721 38.5627 242.396 38.5627C241.175 38.5627 240.119 38.7691 239.229 39.1828C238.339 39.5965 237.645 40.1552 237.148 40.8586C236.651 41.562 236.403 42.3595 236.403 43.2492H228.949C228.949 41.925 229.27 40.6419 229.912 39.4005C230.554 38.1591 231.485 37.0517 232.707 36.0793C233.928 35.1068 235.388 34.341 237.086 33.7824C238.784 33.2237 240.689 32.9445 242.801 32.9445ZM333.577 32.9445C336.269 32.9445 338.629 33.4829 340.658 34.5587C342.687 35.6139 344.282 37.0928 345.441 38.9962C346.621 40.8791 347.232 43.0728 347.273 45.5763H340.224C340.161 44.335 339.851 43.2178 339.292 42.2248C338.754 41.211 337.988 40.4039 336.994 39.8039C336.021 39.2038 334.851 38.9035 333.484 38.9035C331.973 38.9035 330.72 39.2144 329.726 39.8351C328.733 40.4351 327.956 41.2624 327.397 42.3175C326.838 43.352 326.434 44.5209 326.185 45.8244C325.958 47.1072 325.845 48.442 325.845 49.8283V50.9142C325.845 52.3005 325.958 53.6459 326.185 54.9494C326.413 56.2528 326.807 57.4217 327.366 58.4562C327.946 59.4701 328.733 60.2876 329.726 60.9084C330.72 61.5084 331.983 61.8087 333.516 61.8087C334.737 61.8087 335.834 61.5707 336.807 61.0949C337.801 60.5983 338.599 59.9151 339.199 59.0461C339.82 58.1771 340.161 57.1732 340.224 56.0353H347.273C347.232 58.2079 346.59 60.1846 345.348 61.964C344.105 63.7432 342.46 65.1608 340.41 66.216C338.36 67.2505 336.093 67.7677 333.608 67.7677C331.041 67.7677 328.805 67.333 326.9 66.464C324.995 65.5743 323.411 64.3537 322.148 62.8019C320.885 61.2502 319.933 59.4604 319.291 57.4328C318.67 55.4051 318.359 53.2316 318.359 50.9142V49.8283C318.359 47.511 318.67 45.3384 319.291 43.3107C319.933 41.2623 320.885 39.4621 322.148 37.9103C323.411 36.3585 324.995 35.1485 326.9 34.2794C328.805 33.3898 331.031 32.9445 333.577 32.9445ZM148.733 21.9582C152.232 21.9582 155.203 22.5791 157.646 23.8205C160.11 25.0412 161.984 26.7379 163.267 28.9103C164.551 31.0621 165.193 33.5245 165.193 36.297C165.193 39.2144 164.551 41.718 163.267 43.8078C161.984 45.8975 160.11 47.501 157.646 48.6183C155.203 49.7356 152.232 50.2941 148.733 50.2941H139.353V67.1476H131.558V21.9582H148.733ZM409.261 67.1476H401.061L388.64 31.2169L376.247 67.1476H368.079L385.099 21.9582H392.18L409.261 67.1476ZM423.917 67.1476H416.121V21.9582H423.917V67.1476ZM209.418 32.9445C211.136 32.9445 212.669 33.1825 214.015 33.6584C215.381 34.1136 216.54 34.8382 217.492 35.8312C218.444 36.8243 219.17 38.117 219.667 39.7101C220.164 41.2826 220.412 43.1865 220.412 45.4211V67.1466H212.896V45.3898C212.896 43.6933 212.647 42.3794 212.15 41.4484C211.674 40.5175 210.991 39.8763 210.1 39.5246C209.21 39.1522 208.144 38.966 206.902 38.966C205.743 38.966 204.717 39.1828 203.827 39.6173C202.958 40.0312 202.222 40.6214 201.622 41.3869C201.031 42.1197 200.581 42.963 200.271 43.9162C200.281 44.1947 200.287 44.4794 200.287 44.7697V67.1466H192.803V45.4211C192.803 43.7866 192.553 42.5035 192.057 41.5724C191.58 40.6416 190.887 39.9792 189.976 39.5861C189.086 39.1723 188.019 38.966 186.777 38.966C185.369 38.966 184.168 39.2347 183.175 39.7726C182.202 40.3105 181.404 41.0448 180.783 41.9757C180.566 42.3017 180.37 42.6465 180.193 43.008V67.1466H172.709V36.4884C172.709 34.8741 174.017 33.5658 175.632 33.5656H177.016C178.558 33.5658 179.834 34.7638 179.932 36.3029L179.999 37.3498C181.091 35.9725 182.429 34.9077 184.014 34.1554C185.691 33.3485 187.627 32.9445 189.821 32.9445C191.353 32.9445 192.751 33.1719 194.014 33.6271C195.297 34.0616 196.405 34.7554 197.337 35.7072C198.029 36.399 198.6 37.2332 199.052 38.2091C199.246 37.9249 199.451 37.6498 199.666 37.383C200.784 35.9967 202.161 34.9104 203.797 34.1242C205.432 33.338 207.306 32.9445 209.418 32.9445ZM244.105 51.3488C242.718 51.3488 241.496 51.4841 240.44 51.7531C239.384 52.0014 238.505 52.3737 237.801 52.8703C237.097 53.3668 236.569 53.9666 236.217 54.6701C235.865 55.3735 235.688 56.1701 235.688 57.0597C235.688 57.9494 235.895 58.767 236.309 59.5119C236.724 60.2361 237.324 60.8051 238.111 61.2189C238.919 61.6326 239.892 61.839 241.03 61.839C242.562 61.839 243.898 61.5291 245.037 60.9084C246.196 60.267 247.107 59.4905 247.769 58.5802C247.992 58.2678 248.177 57.9601 248.329 57.6593V51.3488H244.105ZM278.95 38.966C277.604 38.966 276.435 39.2558 275.441 39.8351C274.447 40.4145 273.629 41.2109 272.987 42.2248C272.366 43.2385 271.9 44.4181 271.59 45.7628C271.279 47.1076 271.124 48.5454 271.124 50.0763V50.7287C271.124 52.2597 271.269 53.6877 271.558 55.0119C271.869 56.336 272.336 57.5049 272.957 58.5187C273.599 59.5117 274.406 60.2978 275.379 60.8771C276.373 61.4358 277.543 61.715 278.889 61.715C280.648 61.715 282.087 61.3426 283.205 60.5978C284.325 59.8653 285.184 58.8824 285.783 57.6496V42.9845C285.505 42.4501 285.185 41.9582 284.82 41.5109C284.178 40.7039 283.37 40.0831 282.397 39.6486C281.424 39.1935 280.275 38.966 278.95 38.966ZM139.353 44.1183H148.733C150.783 44.1183 152.439 43.7872 153.702 43.1252C154.965 42.463 155.886 41.5524 156.466 40.3937C157.066 39.2144 157.367 37.8698 157.367 36.3595C157.367 34.9319 157.066 33.5971 156.466 32.3556C155.886 31.0935 154.965 30.0792 153.702 29.3136C152.439 28.5482 150.783 28.1652 148.733 28.1652H139.353V44.1183ZM306.589 21.9269C307.914 21.927 308.959 22.3098 309.725 23.0753C310.491 23.8202 310.874 24.7616 310.874 25.8996C310.874 27.0167 310.491 27.9477 309.725 28.6925C308.959 29.4374 307.914 29.8097 306.589 29.8097C305.243 29.8097 304.187 29.4374 303.421 28.6925C302.676 27.9477 302.303 27.0168 302.303 25.8996C302.303 24.7616 302.675 23.8202 303.421 23.0753C304.187 22.3098 305.243 21.9269 306.589 21.9269Z" fill="black"/>
<path d="M446.604 23.5783H443.561V32.1593H441.53V23.5783H438.535V21.9269H446.604V23.5783ZM451.257 21.9269L453.797 29.4396L456.337 21.9269H459V32.1593H456.962V29.2502L457.164 24.4982L454.49 32.1593H453.104L450.428 24.4972L450.632 29.2502V32.1593H448.6V21.9269H451.257Z" fill="black"/>
<rect x="49.4891" width="19.0565" height="86.6203" fill="#6B4FFF"/>
<rect x="102.327" y="33.7821" width="19.0565" height="86.6203" transform="rotate(90 102.327 33.7821)" fill="#6B4FFF"/>
<path d="M82.9048 5.94565L96.3798 19.4206L13.4749 102.325L-7.57761e-06 88.8505L82.9048 5.94565Z" fill="url(#paint0_linear_17954_24)"/>
<path d="M21.6552 19.4208L35.1302 5.94589L96.3799 67.1957L82.905 80.6706L21.6552 19.4208Z" fill="url(#paint1_linear_17954_24)"/>
<rect x="45.4754" y="43.3568" width="19.0565" height="19.032" transform="rotate(-45 45.4754 43.3568)" fill="white"/>
<defs>
<linearGradient id="paint0_linear_17954_24" x1="89.6423" y1="12.6831" x2="6.73747" y2="95.588" gradientUnits="userSpaceOnUse">
<stop stop-color="#FF66D4"/>
<stop offset="0.980769" stop-color="#FFED09"/>
</linearGradient>
<linearGradient id="paint1_linear_17954_24" x1="28.1397" y1="15.3488" x2="88.6823" y2="72.4806" gradientUnits="userSpaceOnUse">
<stop stop-color="#FF66D4"/>
<stop offset="1" stop-color="#FF97E2"/>
</linearGradient>
</defs>
</svg>
