<svg xmlns="http://www.w3.org/2000/svg" style="display:none">
  <symbol id="arrow-right" viewBox="0 0 24 24">
    <path d="M5 12h14" />
    <path d="m12 5 7 7-7 7" />
  </symbol>
  <symbol id="shopping-cart" viewBox="0 0 24 24">
    <circle cx="8" cy="21" r="1" />
    <circle cx="19" cy="21" r="1" />
    <path d="M2.05 2.05h2l2.66 12.42a2 2 0 0 0 2 1.58h9.78a2 2 0 0 0 1.95-1.57l1.65-7.43H5.12" />
  </symbol>
  <symbol id="box" viewBox="0 0 24 24">
    <path d="M21 8a2 2 0 0 0-1-1.73l-7-4a2 2 0 0 0-2 0l-7 4A2 2 0 0 0 3 8v8a2 2 0 0 0 1 1.73l7 4a2 2 0 0 0 2 0l7-4A2 2 0 0 0 21 16Z" />
    <path d="m3.3 7 8.7 5 8.7-5" />
    <path d="M12 22V12" />
  </symbol>
  <symbol id="scale" viewBox="0 0 24 24">
    <path d="M12 3v18" />
    <path d="m19 8 3 8a5 5 0 0 1-6 0zV7" />
    <path d="M3 7h1a17 17 0 0 0 8-2 17 17 0 0 0 8 2h1" />
    <path d="m5 8 3 8a5 5 0 0 1-6 0zV7" />
    <path d="M7 21h10" />
  </symbol>
  <symbol id="yen" viewBox="0 0 24 24">
    <path d="M3.85 8.62a4 4 0 0 1 4.78-4.77 4 4 0 0 1 6.74 0 4 4 0 0 1 4.78 4.78 4 4 0 0 1 0 6.74 4 4 0 0 1-4.77 4.78 4 4 0 0 1-6.75 0 4 4 0 0 1-4.78-4.77 4 4 0 0 1 0-6.76Z" />
    <path d="m9 8 3 3v7" />
    <path d="m12 11 3-3" />
    <path d="M9 12h6" />
    <path d="M9 16h6" />
  </symbol>
  <symbol id="messages" viewBox="0 0 24 24">
    <path d="M16 10a2 2 0 0 1-2 2H6.828a2 2 0 0 0-1.414.586l-2.202 2.202A.71.71 0 0 1 2 14.286V4a2 2 0 0 1 2-2h10a2 2 0 0 1 2 2z" />
    <path d="M20 9a2 2 0 0 1 2 2v10.286a.71.71 0 0 1-1.212.502l-2.202-2.202A2 2 0 0 0 17.172 19H10a2 2 0 0 1-2-2v-1" />
  </symbol>
  <symbol id="calendar" viewBox="0 0 24 24">
    <path d="M8 2v4" />
    <path d="M16 2v4" />
    <rect width="18" height="18" x="3" y="4" rx="2" />
    <path d="M3 10h18" />
    <path d="M8 14h.01" />
    <path d="M12 14h.01" />
    <path d="M16 14h.01" />
    <path d="M8 18h.01" />
    <path d="M12 18h.01" />
    <path d="M16 18h.01" />
  </symbol>
  <symbol id="users" viewBox="0 0 24 24">
    <path d="M18 21a8 8 0 0 0-16 0" />
    <circle cx="10" cy="8" r="5" />
    <path d="M22 20c0-3.37-2-6.5-4-8a5 5 0 0 0-.45-8.3" />
  </symbol>
  <symbol id="database" viewBox="0 0 24 24">
    <ellipse cx="12" cy="5" rx="9" ry="3" />
    <path d="M3 5V19A9 3 0 0 0 21 19V5" />
    <path d="M3 12A9 3 0 0 0 21 12" />
  </symbol>
  <symbol id="trend" viewBox="0 0 24 24">
    <path d="M16 7h6v6" />
    <path d="m22 7-8.5 8.5-5-5L2 17" />
  </symbol>
  <symbol id="blocks" viewBox="0 0 24 24">
    <path d="M12 3v18" />
    <path d="M3 12h18" />
    <rect x="3" y="3" width="18" height="18" rx="2" />
  </symbol>
  <symbol id="play" viewBox="0 0 24 24">
    <rect x="3" y="3" width="18" height="18" rx="2" />
    <path d="M9 9.003a1 1 0 0 1 1.517-.859l4.997 2.997a1 1 0 0 1 0 1.718l-4.997 2.997A1 1 0 0 1 9 14.996z" />
  </symbol>
  <symbol id="shield" viewBox="0 0 24 24">
    <path d="M20 13c0 5-3.5 7.5-7.66 8.95a1 1 0 0 1-.67-.01C7.5 20.5 4 18 4 13V6a1 1 0 0 1 1-1c2 0 4.5-1.2 6.24-2.72a1.17 1.17 0 0 1 1.52 0C14.51 3.81 17 5 19 5a1 1 0 0 1 1 1z" />
    <path d="m9 12 2 2 4-4" />
  </symbol>
  <symbol id="chart" viewBox="0 0 24 24">
    <path d="M5 21v-6" />
    <path d="M12 21V3" />
    <path d="M19 21V9" />
  </symbol>
</svg>
